<svg width="92" height="33" viewBox="0 0 92 33" fill="none" xmlns="http://www.w3.org/2000/svg">
<path d="M38.7745 22.911C38.729 22.9114 38.6839 22.9024 38.6421 22.8848C38.6002 22.8671 38.5625 22.8411 38.5312 22.8083C38.4984 22.7774 38.4722 22.7401 38.4545 22.6988C38.4367 22.6574 38.4276 22.6129 38.4278 22.568C38.4286 22.5046 38.4345 22.4414 38.4455 22.379L42.7313 11.2616C42.7708 11.156 42.8362 11.0617 42.9216 10.9874C43.0262 10.9109 43.155 10.874 43.2846 10.8835H44.4657C44.5927 10.8767 44.7182 10.9134 44.8212 10.9874C44.9104 11.0601 44.979 11.1546 45.0204 11.2616L49.2935 22.379C49.3149 22.4398 49.3264 22.5036 49.3276 22.568C49.3256 22.6583 49.2886 22.7445 49.2243 22.8084C49.1599 22.8723 49.0732 22.9091 48.9822 22.911H48.0998C48.045 22.916 47.9896 22.9095 47.9375 22.8918C47.8854 22.8741 47.8376 22.8457 47.7973 22.8083C47.744 22.7535 47.7013 22.6894 47.6712 22.6193L46.7195 20.1795H41.0472L40.0955 22.6193C40.0725 22.693 40.0288 22.7586 39.9694 22.8083C39.927 22.8451 39.8776 22.8732 39.8242 22.8908C39.7707 22.9084 39.7143 22.9153 39.6581 22.911H38.7745ZM41.5476 18.7024H46.2141L43.8783 12.6023L41.5476 18.7024Z" fill="white"/>
<path d="M51.5787 22.9103C51.5247 22.9134 51.4706 22.9049 51.4202 22.8855C51.3697 22.8661 51.324 22.8361 51.2863 22.7976C51.2165 22.72 51.1795 22.6187 51.1829 22.5147V11.2809C51.1797 11.1766 51.2167 11.075 51.2863 10.9968C51.3244 10.9582 51.3706 10.9283 51.4215 10.9091C51.4724 10.8898 51.5269 10.8817 51.5812 10.8854H52.4976C52.5492 10.8831 52.6006 10.8919 52.6485 10.9112C52.6963 10.9304 52.7394 10.9596 52.7749 10.9968C52.8451 11.0747 52.8821 11.1765 52.8783 11.2809V21.4206H58.6401C58.6943 21.4172 58.7485 21.4254 58.7992 21.4446C58.8499 21.4638 58.8958 21.4937 58.9338 21.5321C59.0066 21.6155 59.044 21.7236 59.0385 21.8337V22.521C59.042 22.6252 59.0045 22.7267 58.9338 22.8039C58.8958 22.8423 58.8499 22.8721 58.7992 22.8914C58.7485 22.9106 58.6943 22.9188 58.6401 22.9153L51.5787 22.9103Z" fill="white"/>
<path d="M61.9058 22.9112C61.8529 22.9139 61.8001 22.9055 61.7507 22.8867C61.7013 22.8678 61.6564 22.8389 61.619 22.8017C61.5816 22.7645 61.5524 22.72 61.5334 22.6709C61.5144 22.6218 61.506 22.5694 61.5087 22.5169V12.4085H58.186C58.1332 12.4102 58.0806 12.4012 58.0315 12.3819C57.9824 12.3627 57.9378 12.3336 57.9004 12.2965C57.8631 12.2594 57.8338 12.2151 57.8144 12.1663C57.795 12.1175 57.7859 12.0653 57.7877 12.0129V11.2919C57.7849 11.2365 57.7936 11.1813 57.8131 11.1294C57.8326 11.0775 57.8625 11.0301 57.9011 10.9902C57.9385 10.9534 57.9831 10.9245 58.032 10.9054C58.081 10.8862 58.1334 10.8772 58.186 10.8788H66.5256C66.5813 10.8746 66.6371 10.8825 66.6894 10.9018C66.7417 10.9211 66.7892 10.9514 66.8286 10.9907C66.868 11.0299 66.8983 11.0771 66.9176 11.1291C66.9369 11.1811 66.9447 11.2366 66.9403 11.2919V12.0129C66.9422 12.0654 66.9333 12.1177 66.914 12.1666C66.8947 12.2154 66.8655 12.2599 66.8281 12.2971C66.7879 12.335 66.7404 12.3644 66.6884 12.3836C66.6364 12.4027 66.581 12.4112 66.5256 12.4085H63.2205V22.5119C63.2227 22.5642 63.2139 22.6164 63.1946 22.6651C63.1752 22.7138 63.1459 22.758 63.1083 22.7948C63.0683 22.833 63.0208 22.8626 62.9687 22.8817C62.9167 22.9009 62.8612 22.9092 62.8058 22.9062L61.9058 22.9112Z" fill="white"/>
<path d="M69.2767 22.9104C69.2225 22.9138 69.1683 22.9056 69.1176 22.8864C69.0669 22.8672 69.021 22.8374 68.983 22.799C68.9127 22.7216 68.8756 22.6201 68.8796 22.516V11.296C68.8737 11.186 68.9107 11.0779 68.983 10.9943C69.021 10.9559 69.0669 10.9261 69.1176 10.9069C69.1683 10.8877 69.2225 10.8795 69.2767 10.8829H76.4226C76.4769 10.8793 76.5314 10.8874 76.5823 10.9066C76.6332 10.9258 76.6794 10.9558 76.7176 10.9943C76.7898 11.0779 76.8268 11.186 76.8209 11.296V11.9482C76.8245 12.0014 76.8171 12.0548 76.7994 12.1052C76.7816 12.1555 76.7538 12.2018 76.7176 12.2411C76.6777 12.2769 76.6311 12.3044 76.5805 12.322C76.5298 12.3396 76.4762 12.347 76.4226 12.3438H70.5397V16.1067H76.0419C76.0963 16.1031 76.1507 16.1112 76.2017 16.1304C76.2526 16.1497 76.2987 16.1796 76.3369 16.2182C76.4089 16.3014 76.446 16.409 76.4402 16.5186V17.1545C76.4442 17.259 76.4071 17.3608 76.3369 17.4387C76.2987 17.4772 76.2526 17.5072 76.2017 17.5264C76.1507 17.5456 76.0963 17.5537 76.0419 17.5501H70.5397V21.4507H76.5612C76.6147 21.4471 76.6683 21.4543 76.7188 21.472C76.7693 21.4896 76.8156 21.5173 76.855 21.5534C76.8912 21.5925 76.9192 21.6385 76.9372 21.6886C76.9552 21.7388 76.9628 21.792 76.9596 21.8451V22.516C76.9631 22.6203 76.9256 22.7218 76.855 22.799C76.8169 22.8374 76.771 22.8672 76.7203 22.8864C76.6696 22.9056 76.6154 22.9138 76.5612 22.9104H69.2767Z" fill="white"/>
<path d="M79.7637 22.9103C79.7096 22.9137 79.6553 22.9055 79.6046 22.8863C79.554 22.8671 79.508 22.8373 79.47 22.7989C79.3997 22.7216 79.3626 22.62 79.3666 22.516V11.2959C79.3607 11.1859 79.3977 11.0779 79.47 10.9943C79.508 10.9559 79.554 10.926 79.6046 10.9068C79.6553 10.8876 79.7096 10.8794 79.7637 10.8828H83.9852C85.2886 10.8828 86.321 11.1866 87.0823 11.7942C87.8437 12.4017 88.2231 13.3009 88.2206 14.4918C88.2206 15.3731 87.9987 16.0916 87.555 16.6474C87.0916 17.2154 86.458 17.6219 85.7462 17.8079L88.4109 22.3783C88.443 22.4363 88.4607 22.5011 88.4626 22.5673C88.4626 22.613 88.4525 22.6582 88.4331 22.6997C88.4138 22.7412 88.3855 22.778 88.3504 22.8076C88.2832 22.8734 88.1926 22.9103 88.0983 22.9103H87.2676C87.1886 22.9169 87.1091 22.9066 87.0345 22.8801C86.9599 22.8535 86.892 22.8113 86.8352 22.7563C86.7476 22.6588 86.6667 22.5555 86.5932 22.4471L84.0848 18.082H81.0595V22.516C81.0616 22.5684 81.0525 22.6206 81.033 22.6693C81.0134 22.7181 80.9838 22.7622 80.9461 22.7989C80.906 22.8371 80.8585 22.8667 80.8065 22.8858C80.7544 22.905 80.699 22.9133 80.6436 22.9103H79.7637ZM81.062 16.6224H83.9159C84.7823 16.6224 85.4285 16.4417 85.8546 16.0804C86.2806 15.719 86.4941 15.1837 86.4949 14.4743C86.4949 13.7758 86.2848 13.2429 85.8646 12.8757C85.4445 12.5085 84.7953 12.3254 83.9171 12.3262H81.062V16.6224Z" fill="white"/>
<g clip-path="url(#clip0_110_15453)">
<path d="M17.0742 16.1284H16.0105C15.7287 16.1284 15.4585 16.24 15.2592 16.4386C15.0599 16.6372 14.9478 16.9066 14.9476 17.1876C14.9499 17.4683 15.0625 17.7368 15.2613 17.9355C15.4601 18.1341 15.7291 18.2471 16.0105 18.25C16.3734 18.2613 16.7283 18.2605 17.0742 18.25C17.6726 18.2275 18.1363 17.7755 18.1363 17.19C18.1367 17.0507 18.1094 16.9127 18.0562 16.784C18.003 16.6552 17.9248 16.5381 17.8261 16.4395C17.7275 16.3409 17.6103 16.2627 17.4812 16.2093C17.3522 16.1559 17.2139 16.1284 17.0742 16.1284Z" fill="white"/>
<path d="M16.413 0.234619C7.57332 0.234619 0.407043 7.38122 0.407043 16.1975C0.407043 25.0137 7.57332 32.1635 16.413 32.1635C25.2527 32.1635 32.4238 25.0129 32.4238 16.1975C32.4238 7.38203 25.2535 0.234619 16.413 0.234619ZM16.413 31.0939C8.16365 31.0939 1.47561 24.4242 1.47561 16.1975C1.47561 7.97074 8.16365 1.30026 16.413 1.30026C24.6624 1.30026 31.3512 7.96994 31.3512 16.1975C31.3512 24.425 24.6632 31.0939 16.413 31.0939Z" fill="white"/>
<path d="M24.3453 25.2984C24.2361 25.5251 24.0618 25.7144 23.8446 25.8423C23.6274 25.9701 23.3771 26.0309 23.1253 26.0167C22.8734 26.0026 22.6315 25.9143 22.43 25.7629C22.2286 25.6115 22.0767 25.404 21.9937 25.1665L16.4121 9.29612L10.8329 25.1665C10.7806 25.3278 10.6964 25.477 10.5853 25.6054C10.4742 25.7338 10.3385 25.8388 10.1862 25.9141C10.0339 25.9894 9.86796 26.0335 9.69825 26.044C9.52854 26.0544 9.35845 26.0308 9.198 25.9747C9.03755 25.9186 8.88997 25.8311 8.76394 25.7172C8.63792 25.6034 8.53601 25.4656 8.46419 25.3119C8.39237 25.1582 8.35211 24.9917 8.34577 24.8223C8.33942 24.6528 8.36713 24.4838 8.42725 24.3252C8.42725 24.3252 15.2459 4.94591 15.2629 4.90329C15.3708 4.67969 15.542 4.49248 15.7554 4.36474C15.9687 4.237 16.2149 4.17431 16.4635 4.1844C16.7122 4.19449 16.9524 4.27692 17.1546 4.42152C17.3569 4.56612 17.5123 4.76658 17.6016 4.99819C17.6016 5.01025 17.6105 5.02151 17.6145 5.03357L24.3994 24.3268C24.4548 24.4844 24.4786 24.6513 24.4693 24.818C24.4601 24.9847 24.4179 25.1479 24.3453 25.2984Z" fill="white"/>
</g>
<defs>
<clipPath id="clip0_110_15453">
<rect width="32.0711" height="32.0712" fill="white" transform="translate(0.405945 0.156006)"/>
</clipPath>
</defs>
</svg>
