<svg width="147" height="40" viewBox="0 0 147 40" fill="none" xmlns="http://www.w3.org/2000/svg">
<path d="M29.8906 2.85156H10.0703L19.9844 20.0234L29.8906 2.85156Z" fill="url(#paint0_linear)"/>
<path d="M29.8906 2.85156L19.9844 20.0234L29.8906 37.1875L39.8047 20.0234L29.8906 2.85156Z" fill="url(#paint1_linear)"/>
<path d="M10.0703 2.85156L0.164062 20.0234L10.0703 37.1875L19.9844 20.0234L10.0703 2.85156Z" fill="url(#paint2_linear)"/>
<path d="M19.9844 20.0234L10.0703 37.1875H29.8906L19.9844 20.0234Z" fill="url(#paint3_linear)"/>
<path d="M55.7045 29C61.0227 29 64.2443 25.7102 64.2443 20.2557C64.2443 14.8182 61.0227 11.5455 55.7557 11.5455H49.517V29H55.7045ZM53.2074 25.8381V14.7074H55.5597C58.8324 14.7074 60.5625 16.3778 60.5625 20.2557C60.5625 24.1506 58.8324 25.8381 55.5511 25.8381H53.2074ZM72.8757 29.2557C76.1143 29.2557 78.2962 27.679 78.8075 25.25L75.4496 25.0284C75.0831 26.0256 74.1456 26.5455 72.9354 26.5455C71.12 26.5455 69.9695 25.3438 69.9695 23.392V23.3835H78.8842V22.3864C78.8842 17.9375 76.1911 15.7386 72.7308 15.7386C68.8786 15.7386 66.3814 18.4744 66.3814 22.5142C66.3814 26.6648 68.8445 29.2557 72.8757 29.2557ZM69.9695 21.1335C70.0462 19.642 71.1797 18.4489 72.7905 18.4489C74.3672 18.4489 75.4581 19.5739 75.4666 21.1335H69.9695ZM87.1683 29.2557C90.6541 29.2557 92.8445 27.2102 93.0149 24.2017H89.5888C89.3757 25.5994 88.4553 26.3835 87.2109 26.3835C85.5149 26.3835 84.4155 24.9602 84.4155 22.4545C84.4155 19.983 85.5234 18.5682 87.2109 18.5682C88.5405 18.5682 89.3928 19.446 89.5888 20.75H93.0149C92.8615 17.7244 90.5689 15.7386 87.1513 15.7386C83.1797 15.7386 80.7251 18.4915 80.7251 22.5057C80.7251 26.4858 83.1371 29.2557 87.1683 29.2557ZM101.305 29.2557C104.544 29.2557 106.726 27.679 107.237 25.25L103.879 25.0284C103.513 26.0256 102.575 26.5455 101.365 26.5455C99.5497 26.5455 98.3991 25.3438 98.3991 23.392V23.3835H107.314V22.3864C107.314 17.9375 104.621 15.7386 101.161 15.7386C97.3082 15.7386 94.8111 18.4744 94.8111 22.5142C94.8111 26.6648 97.2741 29.2557 101.305 29.2557ZM98.3991 21.1335C98.4759 19.642 99.6094 18.4489 101.22 18.4489C102.797 18.4489 103.888 19.5739 103.896 21.1335H98.3991ZM113.314 21.4318C113.322 19.7443 114.328 18.7557 115.794 18.7557C117.251 18.7557 118.129 19.7102 118.121 21.3125V29H121.751V20.6648C121.751 17.6136 119.962 15.7386 117.234 15.7386C115.291 15.7386 113.885 16.6932 113.297 18.2188H113.143V15.9091H109.683V29H113.314V21.4318ZM131.576 15.9091H129.113V12.7727H125.482V15.9091H123.692V18.6364H125.482V25.4545C125.465 28.0199 127.212 29.2898 129.846 29.179C130.783 29.1449 131.448 28.9574 131.815 28.8381L131.244 26.1364C131.065 26.1705 130.681 26.2557 130.34 26.2557C129.616 26.2557 129.113 25.983 129.113 24.9773V18.6364H131.576V15.9091ZM133.941 29H137.572V21.5938C137.572 19.983 138.748 18.875 140.35 18.875C140.853 18.875 141.543 18.9602 141.884 19.071V15.8494C141.56 15.7727 141.109 15.7216 140.742 15.7216C139.276 15.7216 138.075 16.5739 137.597 18.1932H137.461V15.9091H133.941V29Z" fill="#FFFFFF"/>
<defs>
<linearGradient id="paint0_linear" x1="19.9828" y1="20.2898" x2="19.9828" y2="2.06232" gradientUnits="userSpaceOnUse">
<stop stop-color="#74C5EE"/>
<stop offset="0.32" stop-color="#73C2EF"/>
<stop offset="0.53" stop-color="#6EB9F1"/>
<stop offset="0.72" stop-color="#66AAF5"/>
<stop offset="0.88" stop-color="#5A95FA"/>
<stop offset="1" stop-color="#4F80FF"/>
</linearGradient>
<linearGradient id="paint1_linear" x1="19.9617" y1="20.0207" x2="40.0679" y2="20.0207" gradientUnits="userSpaceOnUse">
<stop stop-color="#96D4C8"/>
<stop offset="1" stop-color="#42C0C6"/>
</linearGradient>
<linearGradient id="paint2_linear" x1="0.16157" y1="20.0207" x2="19.9828" y2="20.0207" gradientUnits="userSpaceOnUse">
<stop stop-color="#4F80FF"/>
<stop offset="0.28" stop-color="#4E7FFC"/>
<stop offset="0.48" stop-color="#4A7CF3"/>
<stop offset="0.64" stop-color="#4477E4"/>
<stop offset="0.79" stop-color="#3C6FCE"/>
<stop offset="0.93" stop-color="#3166B3"/>
<stop offset="1" stop-color="#2B60A3"/>
</linearGradient>
<linearGradient id="paint3_linear" x1="19.9828" y1="19.1605" x2="19.9828" y2="37.2297" gradientUnits="userSpaceOnUse">
<stop stop-color="#74C5EE"/>
<stop offset="0.32" stop-color="#73C2EF"/>
<stop offset="0.53" stop-color="#6EB9F1"/>
<stop offset="0.72" stop-color="#66AAF5"/>
<stop offset="0.88" stop-color="#5A95FA"/>
<stop offset="1" stop-color="#4F80FF"/>
</linearGradient>
</defs>
</svg>