<svg width="32" height="32" viewBox="0 0 32 32" fill="none" xmlns="http://www.w3.org/2000/svg">
<path d="M27.0894 5.54044C25.0498 4.6046 22.8626 3.91511 20.5759 3.52021C20.5342 3.51259 20.4926 3.53164 20.4712 3.56973C20.1899 4.07002 19.8783 4.72268 19.6601 5.23567C17.2005 4.86745 14.7536 4.86745 12.3444 5.23567C12.1262 4.71128 11.8033 4.07002 11.5208 3.56973C11.4993 3.53291 11.4577 3.51386 11.4161 3.52021C9.13055 3.91385 6.94341 4.60333 4.90258 5.54044C4.88491 5.54806 4.86977 5.56077 4.85972 5.57726C0.711189 11.7751 -0.425267 17.8206 0.13224 23.7911C0.134763 23.8203 0.15116 23.8482 0.173864 23.866C2.91095 25.876 5.56228 27.0963 8.16437 27.9052C8.20602 27.9179 8.25014 27.9026 8.27664 27.8683C8.89217 27.0278 9.44086 26.1415 9.9113 25.2094C9.93906 25.1548 9.91256 25.0901 9.85582 25.0685C8.98551 24.7383 8.1568 24.3358 7.35964 23.8787C7.29659 23.8419 7.29154 23.7517 7.34954 23.7085C7.5173 23.5828 7.68509 23.452 7.84527 23.32C7.87425 23.2958 7.91464 23.2908 7.94871 23.306C13.1857 25.697 18.8554 25.697 24.0306 23.306C24.0647 23.2895 24.1051 23.2946 24.1353 23.3187C24.2955 23.4508 24.4633 23.5828 24.6323 23.7085C24.6903 23.7517 24.6865 23.8419 24.6235 23.8787C23.8263 24.3447 22.9976 24.7383 22.126 25.0672C22.0693 25.0888 22.044 25.1548 22.0718 25.2094C22.5523 26.1401 23.101 27.0265 23.7052 27.8671C23.7304 27.9026 23.7758 27.9179 23.8175 27.9052C26.4322 27.0963 29.0835 25.876 31.8206 23.866C31.8446 23.8482 31.8597 23.8215 31.8622 23.7923C32.5294 16.8898 30.7447 10.8939 27.131 5.57852C27.1221 5.56077 27.107 5.54806 27.0894 5.54044ZM10.6934 20.1557C9.11666 20.1557 7.81751 18.7081 7.81751 16.9304C7.81751 15.1527 9.09147 13.7052 10.6934 13.7052C12.3078 13.7052 13.5944 15.1654 13.5692 16.9304C13.5692 18.7081 12.2952 20.1557 10.6934 20.1557ZM21.3263 20.1557C19.7497 20.1557 18.4505 18.7081 18.4505 16.9304C18.4505 15.1527 19.7244 13.7052 21.3263 13.7052C22.9408 13.7052 24.2274 15.1654 24.2022 16.9304C24.2022 18.7081 22.9408 20.1557 21.3263 20.1557Z" fill="#79767B"/>
</svg>
