<svg width="32" height="32" viewBox="0 0 32 32" fill="none" xmlns="http://www.w3.org/2000/svg">
<path d="M32 15.7704C32 20.0095 31.2896 23.4481 30.4129 23.4481C29.5363 23.4481 28.8262 20.0105 28.8262 15.7704C28.8262 11.5304 29.5366 8.09277 30.4129 8.09277C31.2893 8.09277 32 11.5301 32 15.7704Z" fill="#79767B"/>
<path d="M27.9509 15.7705C27.9509 20.503 25.9306 24.3409 23.4383 24.3409C20.9461 24.3409 18.9258 20.503 18.9258 15.7705C18.9258 11.0381 20.9458 7.2002 23.438 7.2002C25.9303 7.2002 27.9506 11.0369 27.9506 15.7705" fill="#79767B"/>
<path d="M18.0499 15.7706C18.0499 20.7982 14.0093 24.8739 9.02511 24.8739C4.04097 24.8739 0 20.7973 0 15.7706C0 10.7439 4.04067 6.66699 9.02511 6.66699C14.0096 6.66699 18.0499 10.743 18.0499 15.7706Z" fill="#79767B"/>
</svg>
