<svg width="56" height="57" viewBox="0 0 56 57" fill="none" xmlns="http://www.w3.org/2000/svg">
<g id="noun-discussion-6298176">
<g id="Group">
<path id="Vector" d="M35.0032 30.6833H11.1103C6.35546 30.6833 2.48633 34.5508 2.48633 39.3073C2.48633 44.0621 6.35383 47.9294 11.1103 47.9294H16.4075V51.5501C16.4075 52.6823 17.0393 53.6939 18.0577 54.1873C18.469 54.3867 18.9083 54.4848 19.344 54.4848C19.9862 54.4848 20.6215 54.2713 21.1534 53.853L28.6765 47.9273H35.0026C39.7575 47.9273 43.6266 44.0598 43.6266 39.3051C43.6268 34.5507 39.7575 30.683 35.0026 30.683L35.0032 30.6833ZM35.0032 44.7794H28.1311C27.7776 44.7794 27.4345 44.8984 27.1563 45.1172L19.5562 51.1022V46.3543C19.5562 45.4846 18.8509 44.7793 17.9812 44.7793H11.1105C8.0917 44.7793 5.63647 42.324 5.63647 39.3072C5.63647 36.2903 8.09174 33.8332 11.1105 33.8332H35.0033C38.0221 33.8332 40.4773 36.2885 40.4773 39.3072C40.4773 42.3259 38.0221 44.7793 35.0033 44.7793L35.0032 44.7794Z" fill="#6A6DCD"/>
<path id="Vector_2" d="M16.2577 37.7322H15.9637C15.0939 37.7322 14.3887 38.4375 14.3887 39.3072C14.3887 40.1769 15.0939 40.8822 15.9637 40.8822H16.2577C17.1274 40.8822 17.8327 40.1769 17.8327 39.3072C17.8327 38.4375 17.1274 37.7322 16.2577 37.7322Z" fill="#6A6DCD"/>
<path id="Vector_3" d="M23.2031 37.7322H22.9109C22.0412 37.7322 21.3359 38.4375 21.3359 39.3072C21.3359 40.1769 22.0412 40.8822 22.9109 40.8822H23.2031C24.0729 40.8822 24.7782 40.1769 24.7782 39.3072C24.7782 38.4375 24.0731 37.7322 23.2031 37.7322Z" fill="#6A6DCD"/>
<path id="Vector_4" d="M30.1508 37.7322H29.8567C28.987 37.7322 28.2817 38.4375 28.2817 39.3072C28.2817 40.1769 28.987 40.8822 29.8567 40.8822H30.1508C31.0205 40.8822 31.7258 40.1769 31.7258 39.3072C31.7258 38.4375 31.0223 37.7322 30.1508 37.7322Z" fill="#6A6DCD"/>
<path id="Vector_5" d="M44.8891 8.89082H39.592L39.5918 5.26995C39.5918 4.13773 38.96 3.12618 37.9415 2.63273C36.9231 2.13927 35.7365 2.26523 34.8458 2.96705L27.3227 8.89279H20.9966C16.2417 8.89279 12.3726 12.7603 12.3726 17.5149C12.3726 22.2698 16.2401 26.1389 20.9966 26.1389H44.8894C49.6443 26.1389 53.5134 22.2714 53.5134 17.5149C53.5132 12.7601 49.6441 8.89092 44.8894 8.89092L44.8891 8.89082ZM44.8891 22.987H20.9962C17.9775 22.987 15.5222 20.5317 15.5222 17.513C15.5222 14.4942 17.9775 12.0408 20.9962 12.0408H27.8684C28.2218 12.0408 28.5649 11.9218 28.8431 11.703L36.4432 5.71803V10.4659C36.4432 11.3356 37.1485 12.0409 38.0182 12.0409H44.8904C47.9091 12.0409 50.3644 14.4962 50.3644 17.513C50.3644 20.5299 47.9056 22.987 44.8885 22.987L44.8891 22.987Z" fill="#6A6DCD"/>
<path id="Vector_6" d="M40.0368 15.938H39.7427C38.873 15.938 38.1677 16.6433 38.1677 17.513C38.1677 18.3827 38.873 19.088 39.7427 19.088H40.0349C40.9047 19.088 41.6099 18.3827 41.6099 17.513C41.6099 16.6433 40.9065 15.938 40.0368 15.938Z" fill="#6A6DCD"/>
<path id="Vector_7" d="M33.0889 15.938H32.7967C31.927 15.938 31.2217 16.6433 31.2217 17.513C31.2217 18.3827 31.927 19.088 32.7967 19.088H33.0889C33.9586 19.088 34.6639 18.3827 34.6639 17.513C34.6639 16.6433 33.9586 15.938 33.0889 15.938Z" fill="#6A6DCD"/>
<path id="Vector_8" d="M26.1417 15.938H25.8477C24.978 15.938 24.2727 16.6433 24.2727 17.513C24.2727 18.3827 24.978 19.088 25.8477 19.088H26.1417C27.0115 19.088 27.7167 18.3827 27.7167 17.513C27.7167 16.6433 27.0133 15.938 26.1417 15.938Z" fill="#6A6DCD"/>
</g>
</g>
</svg>
