<svg width="56" height="57" viewBox="0 0 56 57" fill="none" xmlns="http://www.w3.org/2000/svg">
<g id="noun-onboarding-5302804">
<g id="Group">
<path id="Vector" d="M21 28.41C17.1325 28.41 14 25.2775 14 21.41C14 17.5425 17.1325 14.41 21 14.41C24.8675 14.41 28 17.5425 28 21.41C28 25.2775 24.8675 28.41 21 28.41ZM21 17.91C19.075 17.91 17.5 19.485 17.5 21.41C17.5 23.335 19.075 24.91 21 24.91C22.925 24.91 24.5 23.335 24.5 21.41C24.5 19.485 22.925 17.91 21 17.91Z" fill="#6A6DCD"/>
<path id="Vector_2" d="M40.7224 21.1123L35.2446 16.0201L37.6246 13.4651L40.7046 16.3176L46.3569 10.9453L48.7719 13.4828L40.7224 21.1123Z" fill="#6A6DCD"/>
<path id="Vector_3" d="M49 27.7101H35C32.1125 27.7101 29.75 25.3476 29.75 22.4601V8.46008C29.75 5.57258 32.1125 3.21008 35 3.21008H49C51.8875 3.21008 54.25 5.57258 54.25 8.46008V22.4601C54.25 25.3476 51.8875 27.7101 49 27.7101ZM35 6.71008C34.0375 6.71008 33.25 7.49758 33.25 8.46008V22.4601C33.25 23.4226 34.0375 24.2101 35 24.2101H49C49.9625 24.2101 50.75 23.4226 50.75 22.4601V8.46008C50.75 7.49758 49.9625 6.71008 49 6.71008H35Z" fill="#6A6DCD"/>
<path id="Vector_4" d="M50.75 29.8623V38.3146C50.75 40.1871 49.175 41.7096 47.25 41.7096H33.25V37.1071C33.25 33.8521 30.6075 31.2094 27.3522 31.2094H14.6472C11.3922 31.2094 8.74951 33.8519 8.74951 37.1071V41.7096C6.82451 41.7096 5.24951 40.1871 5.24951 38.3146V10.0869C5.24951 8.21435 6.82451 6.70935 8.74951 6.70935H22.9072V3.20935H8.74951C4.88201 3.20935 1.74951 6.28935 1.74951 10.0871V38.3148C1.74951 42.1123 4.88201 45.2098 8.74951 45.2098H19.2495V51.1598H15.7495V54.6598H40.2495V51.1598H36.7495V45.2098H47.2495C51.117 45.2098 54.2495 42.1123 54.2495 38.3148V29.8626L50.75 29.8623ZM12.25 41.7101V37.1076C12.25 35.7775 13.335 34.7101 14.6475 34.7101H27.3525C28.665 34.7101 29.75 35.7775 29.75 37.1076V41.7101H12.25ZM33.25 51.1601H22.75V45.2101H33.25V51.1601Z" fill="#6A6DCD"/>
</g>
</g>
</svg>
