<svg width="56" height="57" viewBox="0 0 56 57" fill="none" xmlns="http://www.w3.org/2000/svg">
<g id="noun-contact-us-4942228" clip-path="url(#clip0_199_2393)">
<g id="Group">
<path id="Vector" d="M41.7335 9.05409H43.1335C43.7529 9.05409 44.2535 8.55223 44.2535 7.93409C44.2535 7.31594 43.7529 6.81409 43.1335 6.81409H41.7335C41.1141 6.81409 40.6135 7.31594 40.6135 7.93409C40.6135 8.55242 41.1141 9.05409 41.7335 9.05409Z" fill="#6A6DCD"/>
<path id="Vector_2" d="M36.3575 9.05409H37.7643C38.3837 9.05409 38.8843 8.55223 38.8843 7.93409C38.8843 7.31594 38.3837 6.81409 37.7643 6.81409H36.3575C35.7381 6.81409 35.2375 7.31594 35.2375 7.93409C35.2375 8.55242 35.7381 9.05409 36.3575 9.05409Z" fill="#6A6DCD"/>
<path id="Vector_3" d="M34.5418 26.4085C34.5418 23.8067 32.4273 21.6901 29.8299 21.6901H18.9188C16.3182 21.6901 14.2026 23.8068 14.2026 26.4085C14.2026 29.0069 16.3183 31.1214 18.9188 31.1214H29.8299C32.4272 31.1214 34.5418 29.0068 34.5418 26.4085ZM29.8299 28.8815H18.9188C17.5534 28.8815 16.4425 27.7715 16.4425 26.4085C16.4425 25.0421 17.5536 23.9299 18.9188 23.9299H29.8299C31.1929 23.9299 32.3018 25.0421 32.3018 26.4085C32.3018 27.7715 31.1931 28.8815 29.8299 28.8815Z" fill="#6A6DCD"/>
<path id="Vector_4" d="M55.6734 47.5667L48.93 40.8266L52.6754 38.9696C53.0819 38.768 53.3273 38.3402 53.2948 37.8866C53.2634 37.4342 52.9599 37.0444 52.5275 36.9021L48.7497 35.6577V6.61053C48.7497 4.53405 47.0586 2.84509 44.9798 2.84509H3.76471C1.6893 2.84509 0.00146484 4.53401 0.00146484 6.61053V37.6905C0.00146484 39.7659 1.6893 41.4527 3.76471 41.4527H35.9512L38.9304 50.4967C39.0726 50.9291 39.4623 51.2313 39.915 51.2639C40.3752 51.2985 40.7963 51.0523 40.9979 50.6445L42.8549 46.8991L49.5964 53.6439C49.807 53.8544 50.0904 53.972 50.3883 53.972C50.6862 53.972 50.9707 53.8544 51.1802 53.6439L55.6737 49.1493C55.884 48.9411 56.0016 48.6555 56.0016 48.3598C56.0016 48.0619 55.884 47.7774 55.6735 47.5668L55.6734 47.5667ZM3.76602 5.08509H44.9811C45.8244 5.08509 46.5111 5.76941 46.5111 6.61053V10.7803H2.24305V6.61053C2.24305 5.76946 2.9263 5.08509 3.7663 5.08509H3.76602ZM3.76602 39.2124C2.92602 39.2124 2.24277 38.5303 2.24277 37.6903V13.02H46.5108V34.9216L34.3644 30.9188C33.9646 30.7899 33.5222 30.8931 33.222 31.191C32.923 31.4899 32.8176 31.9313 32.9498 32.3334L35.2155 39.2135L3.76592 39.2133L3.76602 39.2124ZM50.3893 51.2692L43.3375 44.2123C43.1269 44.0006 42.8402 43.8842 42.5456 43.8842C42.4851 43.8842 42.4258 43.8887 42.3642 43.8988C42.0091 43.9582 41.7023 44.1844 41.5432 44.5069L40.207 47.2028L35.7729 33.7413L49.2353 38.1754L46.5393 39.5127C46.2169 39.6729 45.9905 39.9786 45.9312 40.3337C45.8731 40.6899 45.9907 41.0527 46.2448 41.307L53.2998 48.3574L50.3893 51.2692Z" fill="#6A6DCD"/>
</g>
</g>
<defs>
<clipPath id="clip0_199_2393">
<rect width="56" height="56" fill="white" transform="translate(0 0.410034)"/>
</clipPath>
</defs>
</svg>
