<svg viewBox="0 0 118 32" fill="none" xmlns="http://www.w3.org/2000/svg" class="align-center peerswap-logo pt-5 pb-5">
  <path fill-rule="evenodd" clip-rule="evenodd" d="M74.649 10.552a2.32 2.32 0 01-.48.12 3.029 3.029 0 00-.934.337c-.04.024-.151.087-.247.138a1.031 1.031 0 00-.238.17c-.035.043-.085.077-.112.077-.115 0-.622.668-.622.819 0 .039-.037.111-.083.162-.183.2-.188 1.561-.007 1.742.05.049.09.131.09.183 0 .107.397.602.627.782.357.279.44.336.48.336.025 0 .118.055.21.122.09.066.212.12.27.12.059 0 .162.044.23.098.07.054.231.111.36.128.13.017.273.061.317.1.044.038.242.092.439.121a2.1 2.1 0 01.528.143c.093.049.25.09.348.09.099 0 .296.054.44.12.143.066.305.12.36.121.054 0 .142.031.195.068.053.037.192.096.308.13.117.035.223.092.237.127a.108.108 0 00.093.064c.095 0 .495.373.535.5.018.057.077.162.13.234.138.186.107.745-.05.913-.06.064-.11.143-.11.176 0 .07-.424.504-.493.504-.026 0-.14.045-.252.1-.494.244-2.15.266-2.409.034a.613.613 0 00-.248-.115c-.166-.033-.74-.552-.74-.668a.443.443 0 00-.097-.187c-.056-.07-.11-.238-.13-.396-.022-.192-.058-.289-.12-.322-.147-.078-1.832-.06-1.864.022-.035.093.04.546.132.78.041.107.076.262.077.345a.528.528 0 00.09.267c.05.064.118.186.152.272.089.218.793.926.989.993.088.03.211.093.273.14.061.047.182.1.268.119a.626.626 0 01.234.101c.044.038.197.082.342.097.144.015.394.071.555.125.415.14 2.184.152 2.392.016.072-.047.284-.104.472-.128.187-.023.411-.086.498-.14a.66.66 0 01.232-.098c.04 0 .13-.043.197-.096a.446.446 0 01.197-.098c.157 0 .885-.786 1.074-1.16.401-.792.332-2.017-.146-2.588-.063-.076-.115-.163-.115-.195-.001-.058-.245-.285-.418-.386-.295-.173-.459-.29-.459-.328 0-.023-.093-.066-.207-.097a.897.897 0 01-.286-.125.64.64 0 00-.269-.098 1.094 1.094 0 01-.336-.117 1.588 1.588 0 00-.447-.136 1.903 1.903 0 01-.438-.119 1.515 1.515 0 00-.382-.107 1.43 1.43 0 01-.34-.086 3.071 3.071 0 00-.39-.135c-.483-.14-.867-.283-.948-.353a.633.633 0 00-.198-.103c-.13-.038-.183-.077-.414-.304-.834-.816-.232-1.9 1.124-2.024.933-.085 1.482-.03 1.947.197.55.268 1.04.893 1.139 1.453l.034.193.856.014c.65.01.87-.002.906-.049.077-.098-.014-.855-.13-1.078a.872.872 0 01-.1-.297.247.247 0 00-.076-.168.987.987 0 01-.17-.245c-.122-.238-.727-.868-.833-.868-.046 0-.148-.054-.228-.12a.527.527 0 00-.274-.122.56.56 0 01-.272-.105c-.094-.07-.237-.112-.424-.126a1.671 1.671 0 01-.48-.113c-.269-.125-2.083-.136-2.361-.013zm-40.953.137c-.066.066-.062 10.144.005 10.185.079.049 1.711.035 1.761-.015.026-.026.044-.724.042-1.643-.005-2.007-.186-1.777 1.43-1.813 1.103-.025 2.037-.111 2.347-.217.487-.167 1.071-.524 1.333-.815.044-.05.171-.187.283-.306.111-.12.217-.274.235-.345.018-.071.086-.241.15-.378.066-.136.12-.323.12-.415 0-.092.045-.297.102-.456.127-.36.117-1.042-.02-1.236a.667.667 0 01-.083-.337 1.14 1.14 0 00-.12-.462 1.752 1.752 0 01-.122-.284c0-.023-.068-.121-.15-.218-.208-.248-.221-.267-.285-.385a.539.539 0 00-.214-.18 3.653 3.653 0 01-.4-.243 1.385 1.385 0 00-.414-.2 1.607 1.607 0 01-.367-.133c-.216-.113-5.526-.211-5.633-.104zm9.14.05c-.014.054-.018.452-.01.886l.013.788 3.827.001 3.827.001.013-.834c.008-.459-.005-.853-.027-.876-.104-.103-7.618-.07-7.643.034zm9.793-.032c-.087.086-.092 1.415-.005 1.502.044.044 1.727.058 7.275.058 6.272 0 7.236.01 7.356.072.076.04.225.095.33.123.75.201 1.148 1.104.866 1.971-.185.57-.326.723-1.017 1.104l-.268.148-2.39.024-2.388.024-.013 2.527c-.01 2.15-.002 2.536.058 2.585.048.04.336.059.914.06l.845.003.024-1.763c.014-.97.042-1.79.064-1.824.044-.067 2.356-.09 2.447-.023.099.072.257.335.289.48.018.084.076.19.128.237.052.046.095.127.095.18 0 .051.054.159.121.238.068.08.123.183.123.23 0 .047.04.123.091.168.05.046.106.152.123.236a.624.624 0 00.121.252c.11.12.221.323.414.754.018.04.097.181.175.315.078.133.167.301.198.374l.056.131.954.014c1.188.018 1.292-.049.867-.55-.068-.08-.123-.167-.123-.193a.681.681 0 00-.107-.202c-.253-.37-.283-.422-.283-.486 0-.037-.046-.108-.102-.159a.925.925 0 01-.172-.237c-.182-.375-.279-.537-.341-.573-.037-.022-.068-.07-.068-.106 0-.036-.05-.128-.113-.203a3.816 3.816 0 01-.277-.425 2.438 2.438 0 00-.252-.375c-.136-.136-.123-.504.02-.58a4.02 4.02 0 00.582-.442c.05-.047.107-.085.129-.085.022 0 .076-.071.122-.158.045-.086.157-.255.248-.375.092-.12.182-.284.2-.364.019-.08.077-.215.129-.3.245-.402.202-2.547-.053-2.704-.029-.018-.052-.077-.052-.132 0-.055-.066-.174-.146-.265-.081-.092-.147-.193-.148-.225-.001-.09-.617-.59-.795-.645a.87.87 0 01-.222-.124.425.425 0 00-.2-.09c-.047 0-.192-.05-.323-.109l-.238-.11-7.602-.023c-6.26-.02-7.612-.013-7.666.04zm27.913.018c-.032.06-.017.108.055.175.066.06.11.18.129.354.016.143.067.305.114.358a.66.66 0 01.116.264.61.61 0 00.1.242c.037.042.102.196.143.342.04.147.143.453.226.68.083.226.174.486.202.578.028.092.093.244.144.339.051.095.093.224.093.288a.64.64 0 00.092.267c.051.084.118.275.15.427.03.151.087.3.126.333.039.032.07.108.07.17 0 .146.08.35.171.44.043.043.073.161.073.282 0 .134.035.251.098.332.054.068.111.229.127.358a.975.975 0 00.123.367c.051.074.112.23.134.348.022.118.074.248.115.289.04.04.09.177.109.304a.89.89 0 00.128.349.476.476 0 01.093.25c0 .072.04.184.09.248.049.063.103.188.12.277.018.089.065.23.105.315.04.084.105.263.144.396.038.133.114.362.167.509l.098.267.957.024c1.029.026 1.125.014 1.188-.156.114-.307.216-.62.273-.838.035-.133.098-.306.14-.384.041-.077.09-.23.108-.339a.685.685 0 01.1-.275c.038-.042.092-.206.121-.364.03-.157.084-.32.122-.363.037-.042.082-.184.1-.315a1.2 1.2 0 01.12-.386c.048-.082.104-.245.123-.364.019-.119.072-.292.12-.386.047-.093.1-.268.119-.387.018-.12.077-.29.13-.377.096-.157.096-.16.003-.34-.053-.1-.11-.268-.13-.374a1.197 1.197 0 00-.13-.346.669.669 0 01-.093-.292.902.902 0 00-.101-.334 1.852 1.852 0 01-.145-.453c-.054-.318-.064-.33-.218-.248-.123.065-.218.298-.219.534a.81.81 0 01-.097.301 1.472 1.472 0 00-.13.386 1.24 1.24 0 01-.118.353c-.047.08-.1.267-.119.414-.019.146-.066.303-.106.347-.039.044-.087.197-.107.34-.02.142-.07.313-.114.38a1.028 1.028 0 00-.114.314 1.418 1.418 0 01-.095.316 2.046 2.046 0 00-.115.377c-.134.63-.413.898-.51.492a.675.675 0 00-.129-.238.47.47 0 01-.099-.317.537.537 0 00-.094-.324.924.924 0 01-.128-.37c-.019-.138-.072-.294-.119-.348a.733.733 0 01-.118-.303.984.984 0 00-.103-.312 1.188 1.188 0 01-.117-.29c-.07-.268-.241-.781-.346-1.034a2.455 2.455 0 01-.124-.388 1.597 1.597 0 00-.124-.35.841.841 0 01-.092-.292c0-.062-.044-.2-.098-.305a1.508 1.508 0 01-.128-.386 1.127 1.127 0 00-.116-.34 1.283 1.283 0 01-.12-.396c-.02-.152-.07-.284-.126-.335a.344.344 0 01-.094-.234.64.64 0 00-.097-.294 1.06 1.06 0 01-.127-.356c-.04-.265.04-.246-1.158-.262-.916-.012-1.02-.006-1.061.069zm7.298-.018c-.072.072-.03.35.088.583.036.07.08.215.1.32.02.105.077.274.129.374.05.1.093.23.093.29 0 .06.042.196.094.305.051.108.126.317.166.463.04.147.106.354.147.461.042.107.077.262.078.345a.532.532 0 00.1.274.542.542 0 01.098.286c0 .089.054.27.12.404.066.133.121.308.122.388 0 .08.045.216.098.303.054.087.111.25.128.364.017.113.07.271.116.351.047.08.1.254.117.386.017.133.074.324.128.426a.84.84 0 01.097.294c0 .06.043.195.097.3.053.103.111.266.129.361.017.095.072.249.122.342.05.092.09.219.09.28 0 .06.053.236.116.389.064.152.131.379.149.503.018.125.063.251.1.282.038.031.083.175.101.32.019.145.075.316.125.38s.092.156.093.205c.002.214.036.222 1.04.219 1.077-.004 1.127-.016 1.201-.312.03-.113.094-.293.145-.399.05-.107.108-.281.127-.388.02-.107.068-.217.108-.246.039-.029.09-.168.112-.31.022-.14.072-.292.11-.335.039-.043.095-.198.126-.343.03-.146.089-.302.13-.346a.624.624 0 00.102-.268 1.12 1.12 0 01.113-.334c.047-.08.1-.23.12-.333.018-.104.075-.268.127-.364a.786.786 0 00.094-.248c0-.041.041-.15.091-.243.05-.093.108-.246.128-.34.02-.093.066-.223.103-.29.069-.126.228-.56.329-.897.032-.107.093-.248.137-.315a.987.987 0 00.114-.29c.02-.094.074-.236.121-.316.047-.08.099-.23.114-.333a.629.629 0 01.104-.27c.04-.046.096-.19.121-.322.026-.131.092-.325.147-.43a.914.914 0 00.1-.341c0-.087.04-.182.092-.228.051-.043.109-.173.128-.29.02-.115.077-.286.128-.38a.78.78 0 00.09-.234.85.85 0 01.082-.236c.118-.248.073-.258-1.05-.245l-.991.012-.14.412c-.078.227-.141.456-.142.51a.775.775 0 01-.092.267c-.05.093-.107.267-.127.387-.02.12-.075.283-.122.363-.047.08-.1.243-.119.362a1.19 1.19 0 01-.122.363c-.049.082-.102.266-.118.41-.016.143-.062.297-.103.342-.041.045-.088.19-.105.32-.017.132-.063.29-.101.352-.04.062-.103.266-.142.452-.04.188-.102.388-.14.446a1.096 1.096 0 00-.101.347c-.02.134-.063.275-.097.316-.035.04-.086.197-.114.35a1.89 1.89 0 01-.122.413 1.423 1.423 0 00-.106.329 1.2 1.2 0 01-.09.29c-.029.052-.086.216-.127.362-.13.47-.418.347-.487-.21-.023-.188-.076-.368-.122-.419-.045-.049-.098-.21-.118-.359-.02-.148-.073-.31-.118-.36-.049-.053-.094-.215-.112-.4-.02-.197-.063-.347-.119-.409-.048-.053-.103-.211-.122-.35-.018-.14-.075-.302-.125-.36a.399.399 0 01-.091-.22c0-.063-.055-.245-.122-.403a1.774 1.774 0 01-.124-.374 1.208 1.208 0 00-.076-.28 5.107 5.107 0 01-.144-.475 1.806 1.806 0 00-.138-.387 1.065 1.065 0 01-.1-.335c-.018-.124-.062-.25-.099-.28-.036-.031-.081-.17-.1-.308a1.544 1.544 0 00-.106-.397c-.04-.08-.102-.28-.138-.445a1.8 1.8 0 00-.178-.477l-.114-.178-.818-.008c-.626-.006-.833.008-.883.057zm11.588.09a1.372 1.372 0 00-.185.403 1.181 1.181 0 01-.122.315 1.166 1.166 0 00-.124.3c-.111.383-.302.918-.384 1.075a.695.695 0 00-.077.255c0 .06-.035.147-.079.195-.043.048-.098.19-.122.315-.023.126-.075.264-.115.308-.04.044-.094.19-.12.326-.026.136-.092.32-.146.41a.704.704 0 00-.1.3.49.49 0 01-.095.257.885.885 0 00-.13.347.992.992 0 01-.12.348.873.873 0 00-.112.316 1.49 1.49 0 01-.127.386.887.887 0 00-.099.291c0 .055-.04.176-.09.269-.05.093-.108.245-.127.338-.02.094-.066.217-.102.274-.072.112-.232.542-.334.89-.034.12-.097.285-.14.365-.042.081-.091.229-.11.328a.806.806 0 01-.119.29.794.794 0 00-.112.318.666.666 0 01-.11.301c-.1.11-.156.504-.078.552.03.019.474.035.987.036.996.002 1.015-.002 1.017-.243a.47.47 0 01.098-.237.55.55 0 00.1-.298c0-.097.055-.285.12-.418.067-.133.12-.301.121-.373 0-.072.055-.233.122-.359a1.03 1.03 0 00.122-.372c0-.08.042-.213.092-.296.051-.083.109-.248.128-.365.02-.118.077-.282.127-.364.05-.082.092-.2.092-.262s.055-.232.122-.377c.067-.146.122-.308.122-.36 0-.053.044-.178.097-.277a.81.81 0 00.098-.269c0-.048.042-.17.093-.27.052-.1.11-.268.128-.373.02-.106.076-.272.125-.37.05-.097.105-.267.122-.379.018-.11.063-.231.1-.268.037-.037.092-.194.122-.348.031-.155.086-.317.123-.36.037-.043.087-.2.111-.347.048-.294.253-.665.367-.665.1 0 .304.322.358.564.024.11.08.252.124.314a.483.483 0 01.079.237c0 .069.044.21.098.315.053.104.097.21.097.232 0 .024.066.206.147.406.08.2.146.426.146.503 0 .077.04.18.09.227.05.047.106.184.125.302.018.119.073.283.122.364.05.081.105.235.124.341.019.107.074.26.122.34.048.08.098.237.113.35a.797.797 0 00.127.334c.057.07.103.189.103.261 0 .073.041.185.091.249a.846.846 0 01.125.307c.02.105.075.269.122.363.048.095.101.247.119.339a.63.63 0 00.097.242c.036.042.092.183.124.314s.09.283.129.338a.47.47 0 01.07.233c0 .15.093.38.155.38.022 0 .04.05.04.111 0 .276.037.285 1.145.281 1.161-.003 1.153 0 .987-.353-.22-.468-.279-.611-.279-.678a1.37 1.37 0 00-.121-.307 1.228 1.228 0 01-.121-.334.653.653 0 00-.093-.242 1.187 1.187 0 01-.126-.346.719.719 0 00-.121-.29.632.632 0 01-.115-.28.793.793 0 00-.129-.31.535.535 0 01-.1-.282.342.342 0 00-.097-.243c-.058-.052-.109-.18-.128-.32-.018-.135-.07-.269-.123-.316a.304.304 0 01-.091-.194c0-.13-.096-.358-.151-.358-.02 0-.062-.119-.092-.263-.03-.145-.086-.289-.124-.32-.038-.032-.083-.137-.101-.235a.647.647 0 00-.103-.258.838.838 0 01-.119-.29.814.814 0 00-.117-.286c-.039-.042-.09-.18-.113-.305-.024-.126-.077-.267-.119-.313a.808.808 0 01-.124-.292.8.8 0 00-.125-.294.403.403 0 01-.077-.233.505.505 0 00-.096-.268 1.074 1.074 0 01-.149-.357c-.029-.13-.083-.27-.119-.31a.647.647 0 01-.101-.256.783.783 0 00-.119-.29.788.788 0 01-.119-.303.914.914 0 00-.165-.354l-.132-.159-1.164-.01-1.165-.01-.118.154zm7.987-.065c-.04.048-.054.28-.044.766l.013.696 2.316.028 2.316.029.269.141c.752.395.876.62.876 1.597 0 .571-.013.71-.07.732-.039.015-.095.096-.123.18-.06.18-.405.566-.505.566a.508.508 0 00-.208.109c-.139.109-.145.109-2.456.133-1.275.014-2.345.042-2.378.064-.115.073-.086 5.061.03 5.098.129.04 1.69.046 1.756.005.038-.023.054-.514.055-1.667 0-.942.02-1.664.047-1.706.038-.06.269-.078 1.376-.102 1.44-.032 2.136-.112 2.454-.281.105-.056.209-.102.229-.102.048 0 .495-.26.706-.41.179-.127.696-.738.696-.822 0-.03.044-.093.097-.138a.295.295 0 00.098-.194c0-.06.049-.197.11-.303.104-.184.109-.245.109-1.236s-.005-1.052-.109-1.235a.826.826 0 01-.11-.286c0-.25-.833-1.197-1.113-1.266a.576.576 0 01-.204-.099.918.918 0 00-.308-.118 1.354 1.354 0 01-.362-.136c-.181-.118-5.467-.159-5.563-.043zM38.506 12.36c.104.055.213.1.245.1.122 0 .603.541.603.678 0 .074.044.19.099.259.17.216.184.683.029 1.01-.07.148-.128.314-.128.37 0 .121-.486.631-.756.792-.223.133-2.77.212-2.995.093-.098-.052-.1-.086-.1-1.673v-1.62l.11-.08c.179-.131 2.626-.07 2.893.071zm8.112 2.622l-3.779.024v1.552l3.779.024c2.116.014 3.804.005 3.839-.018.044-.031.06-.245.06-.782s-.016-.751-.06-.782c-.035-.024-1.723-.032-3.84-.018zm6.005.058c-.07.071-.083 1.473-.012 1.516.06.037 7.434.033 7.532-.004.098-.038.114-1.416.017-1.512-.084-.084-7.452-.084-7.536 0zm-6.03 4.11l-3.754.026-.014.775c-.007.427-.003.82.01.873.026.104 7.54.137 7.644.034.08-.08.024-1.73-.059-1.731-.04 0-1.762.01-3.827.024zm6.002.078c-.049.126-.034 1.612.016 1.643.062.038 7.43.035 7.53-.003.07-.027.078-.132.067-.862l-.014-.83-3.785-.013c-3.42-.011-3.788-.005-3.814.065z" fill="#FFFFFF"></path>
  <path fill-rule="evenodd" clip-rule="evenodd" d="M3.425 2.213a1.17 1.17 0 01-.251.063c-.199.007-.383.326-.383.665v.318L7.32 7.751c2.49 2.47 4.656 4.614 4.814 4.764.157.15.506.502.774.78.627.651 1.078.88 1.344.68.065-.048.174-.112.242-.14.09-.04.146-.125.207-.318.177-.558.598-.088-5.357-5.977-5.79-5.727-5.508-5.472-5.918-5.327zm18.146.013c-.659.26-.673 1.116-.023 1.393.13.055.673.067 2.968.065 1.545-.001 2.82.008 2.832.02.067.066-.063.322-.238.468-.109.092-.377.348-.595.569-.218.22-.678.679-1.021 1.018-.344.34-.903.897-1.243 1.24-.34.342-.803.8-1.028 1.017-.225.218-.8.789-1.277 1.269-.478.48-.887.889-.908.909l-9.143 9.066-9.104 9.03v.34c0 .413.143.607.528.72.568.168-.897 1.576 20.484-19.679 2.56-2.546 4.68-4.629 4.711-4.629.108 0 .115.179.115 2.829v2.675l.134.25c.306.575.764.684 1.197.289l.229-.21V6.71c0-4.752.046-4.314-.471-4.475-.458-.143-7.787-.151-8.147-.01zM18.805 17.55c-.38.179-.553.535-.46.951.038.178.768.988 1.666 1.85l1.134 1.125 1.146 1.138c2.253 2.234 4.87 4.797 4.956 4.853.124.081.148.213.056.305-.044.044-.72.058-2.738.058-2.38 0-2.709.01-2.941.083-.758.237-.74 1.255.024 1.415.366.076 7.638.075 8.022-.002.364-.073.518-.24.52-.566v-7.828c-.002-.621-.752-.934-1.208-.505-.087.082-.158.17-.158.197 0 .026-.039.09-.086.14-.078.087-.087.317-.11 2.9-.015 1.817-.041 2.821-.073 2.853-.035.035-1.467-1.359-4.51-4.385-2.453-2.44-4.48-4.435-4.504-4.435-.025 0-.082-.033-.126-.072-.1-.09-.478-.137-.61-.075z" fill="#C20965"></path>
</svg>