<svg width="32" height="32" viewBox="0 0 32 32" fill="none" xmlns="http://www.w3.org/2000/svg">
<path fill-rule="evenodd" clip-rule="evenodd" d="M32 16C32 24.8366 24.8366 32 16 32C7.16344 32 0 24.8366 0 16C0 7.16344 7.16344 0 16 0C24.8366 0 32 7.16344 32 16ZM24.3275 13.6608C25.6187 13.6608 26.6667 14.7087 26.6667 16C26.6667 16.9544 26.0866 17.7777 25.3193 18.152C25.3567 18.3766 25.3754 18.6011 25.3754 18.8444C25.3754 22.4374 21.2023 25.338 16.0374 25.338C10.8725 25.338 6.69942 22.4374 6.69942 18.8444C6.69942 18.6011 6.71814 18.3579 6.75556 18.1333C5.93217 17.759 5.37077 16.9544 5.37077 16C5.37077 14.7087 6.41872 13.6608 7.70995 13.6608C8.32749 13.6608 8.90761 13.9228 9.31931 14.3158C10.9287 13.1368 13.1556 12.407 15.6445 12.3321L16.8234 6.75552C16.8608 6.64324 16.917 6.54968 17.0105 6.49354C17.1041 6.43739 17.2164 6.41868 17.3287 6.4374L21.2023 7.26079C21.4643 6.69938 22.0257 6.32511 22.6807 6.32511C23.5977 6.32511 24.3462 7.07365 24.3462 7.99061C24.3462 8.90757 23.5977 9.65611 22.6807 9.65611C21.7825 9.65611 21.0526 8.945 21.0152 8.06546L17.5532 7.33564L16.4866 12.3321C18.9193 12.4257 21.1275 13.1742 22.7181 14.3158C23.1298 13.9041 23.6912 13.6608 24.3275 13.6608ZM12.3322 16C11.4152 16 10.6667 16.7485 10.6667 17.6655C10.6667 18.5824 11.4152 19.331 12.3322 19.331C13.2491 19.331 13.9977 18.5824 13.9977 17.6655C13.9977 16.7485 13.2491 16 12.3322 16ZM16.0187 23.2795C16.655 23.2795 18.8257 23.2046 19.9673 22.0631C20.1357 21.8947 20.1357 21.6327 20.0047 21.4456C19.8363 21.2772 19.5556 21.2772 19.3871 21.4456C18.6573 22.1567 17.1415 22.4187 16.0374 22.4187C14.9333 22.4187 13.3988 22.1567 12.6877 21.4456C12.5193 21.2772 12.2386 21.2772 12.0702 21.4456C11.9018 21.614 11.9018 21.8947 12.0702 22.0631C13.193 23.1859 15.3825 23.2795 16.0187 23.2795ZM18.0023 17.6655C18.0023 18.5824 18.7509 19.331 19.6678 19.331C20.5848 19.331 21.3333 18.5824 21.3333 17.6655C21.3333 16.7485 20.5848 16 19.6678 16C18.7509 16 18.0023 16.7485 18.0023 17.6655Z" fill="#79767B"/>
</svg>
